
<svg height="20" viewBox="0 0 60 60" width="20" xmlns="http://www.w3.org/2000/svg"><g id="Page-1" fill="none" fill-rule="evenodd"><g id="027---Edit-Message"><g id="Icons_copy" transform="translate(1)"><path id="Path" d="m58 17v24c0 4.418278-3.581722 8-8 8h-23.63c-.2388412-.0028467-.4703187.0826219-.65.24l-11.07 9.37c-.2966426.2537295-.7138095.3116552-1.0683599.1483471-.3545504-.163308-.5816658-.5179941-.5816401-.9083471v-7.85c0-.5522847-.4477153-1-1-1h-4c-4.418278 0-8-3.581722-8-8v-24c0-4.418278 3.581722-8 8-8h34.93l-16.34 16.33-2.27 5.77-1.48 3.75c-.1580752.3748238-.0733416.8080493.2143046 1.0956954.2876461.2876462.7208716.3723798 1.0956954.2143046l3.75-1.48 5.77-2.27 19.09-19.1c.3900375.3877236 1.0199625.3877236 1.41 0l1.42-1.41c.1076894-.1050821.1868435-.2358585.23-.38 1.401352 1.4802672 2.1815999 3.4416242 2.18 5.48z" fill="#ffdf00"/><g fill="#fec108"><path id="Path" d="m21.32 31.1-1.48 3.75c-.1580752.3748238-.0733416.8080493.2143046 1.0956954.2876461.2876462.7208716.3723798 1.0956954.2143046l1.655-.653c-.0638989-.216548-.051544-.4484664.035-.657l1.48-3.75 2.27-5.77 16.34-16.33h-3l-16.34 16.33z"/><path id="Path" d="m22.72 49.24-9.72 8.227v.383c-.0000257.390353.2270897.7450391.5816401.9083471.3545504.1633081.7717173.1053824 1.0683599-.1483471l11.07-9.37c.1796813-.1573781.4111588-.2428467.65-.2400689l-3 .0000689c-.2388412-.0028467-.4703187.0826219-.65.24z"/><path id="Path" d="m55.82 11.52c-.0431565.1441415-.1223106.2749179-.23.38l-1.42 1.41c-.017.017-.039.022-.056.037.5832775 1.1292683.8871139 2.3819932.886 3.653v24c0 4.418278-3.581722 8-8 8h3c4.418278 0 8-3.581722 8-8v-24c.0015999-2.0383758-.778648-3.9997328-2.18-5.48z"/></g><path id="Path" d="m55.82 11.52c-.0431565.1441415-.1223106.2749179-.23.38l-1.42 1.41c-.3900375.3877236-1.0199625.3877236-1.41 0l-7.07-7.07c-.3877236-.39003745-.3877236-1.01996255 0-1.41l1.41-1.42c.3900375-.38772359 1.0199625-.38772359 1.41 0l.71.71 5.66 5.66.71.71c.2728428.2680652.362893.6713336.23 1.03z" fill="#9e9e9e"/><path id="Path" d="m57.71 6.95-2.83 2.83-5.66-5.66 2.83-2.83c.3900375-.38772359 1.0199625-.38772359 1.41 0l4.25 4.25c.3877236.39003745.3877236 1.01996255 0 1.41z" fill="#ef314c"/><path id="Path" d="m52.76 13.31-19.09 19.1-7.08-7.08 16.34-16.33 2.76-2.76z" fill="#f44335"/><path id="Path" d="m33.67 32.41-5.77 2.27c-.4674313-1.7475764-1.8324236-3.1125687-3.58-3.58l2.27-5.77z" fill="#ffe0b2"/><path id="Path" d="m27.9 34.68-3.75 1.48c-.3748238.1580752-.8080493.0733416-1.0956954-.2143046-.2876462-.2876461-.3723798-.7208716-.2143046-1.0956954l1.48-3.75c1.7475764.4674313 3.1125687 1.8324236 3.58 3.58z" fill="#607d8b"/></g><g id="Icons" fill="#000"><path id="Path" d="m55 40c-.5522847 0-1 .4477153-1 1 0 1.6568542-1.3431458 3-3 3-.5522847 0-1 .4477153-1 1s.4477153 1 1 1c2.7600532-.0033061 4.9966939-2.2399468 5-5 0-.5522847-.4477153-1-1-1z"/><path id="Path" d="m9 12c-2.76005315.0033061-4.99669388 2.2399468-5 5 .00000001.5522847.44771526 1 1 1s.99999999-.4477153 1-1c0-1.6568542 1.34314575-3 3-3 .55228475 0 1-.4477153 1-1s-.44771525-1-1-1z"/><path id="Shape" d="m57.293 9.778 2.121-2.121c.7807639-.7809997.7807639-2.0470003 0-2.828l-4.242-4.243c-.375096-.37524801-.8839266-.58607293-1.4145-.58607293s-1.039404.21082492-1.4145.58607293l-2.121 2.121c-.7809997-.78076388-2.0470003-.78076388-2.828 0l-1.415 1.414c-.5100602.50005188-.7060791 1.23886289-.511 1.926l-1.953 1.953h-34.515c-4.96827817.00551113-8.99448887 4.0317218-9 9v24c.00551113 4.9682782 4.03172183 8.9944889 9 9h4v7.85c-.0048292.7791834.4486954 1.4884521 1.158 1.811.2661251.1244511.5562141.1892945.85.19.472808-.0011455.9297613-.1705976 1.289-.478l11.073-9.373h23.63c4.9682782-.0055111 8.9944889-4.0317218 9-9v-24c-.0002272-2.1187786-.7529657-4.168609-2.124-5.784.0079048-.5384088-.2023874-1.0571056-.583-1.438zm-3.535-7.778 4.242 4.243-2.121 2.121-4.243-4.243zm-4.95 2.121.707.707 5.657 5.657.707.707-1.414 1.414-7.071-7.07zm-22.921 28.27c.7425372.3715648 1.345138.9731133 1.718 1.715l-2.834 1.114zm3.581.983c-.5789857-1.2577623-1.5888311-2.2668983-2.847-2.845l1.345-3.409 4.913 4.913zm5.2-2.382-2.124-2.122 11.313-11.314c.3789722-.3923789.3735524-1.0160848-.0121814-1.4018186s-1.0094397-.3911536-1.4018186-.0121814l-11.313 11.314-2.121-2.121 15.626-15.626 2.049-2.048 2.121 2.121-3.536 3.536c-.3904653.3907415-.3902414 1.0240347.0005 1.4145.3907415.3904653 1.0240347.3902414 1.4145-.0005l3.535-3.536 2.122 2.121zm23.332 10.008c-.0044086 3.8641657-3.1358343 6.9955914-7 7h-23.63c-.4768577-.0040123-.9389027.1655227-1.3.477l-11.07 9.373v-7.85c0-1.1045695-.8954305-2-2-2h-4c-3.86416566-.0044086-6.99559136-3.1358343-7-7v-24c.00440864-3.8641657 3.13583434-6.9955914 7-7h32.515l-14.627 14.627c-.0970643.097263-.1732827.2132919-.224.341l-3.748 9.5c-.2552444.6175043-.1852569 1.3216848.1865393 1.8768684.3717963.5551836.9962837.8880257 1.6644607.8871316.2562559-.0002792.5099958-.0505516.747-.148l9.518-3.753c.1274091-.0502648.2431343-.1261669.34-.223l18.581-18.576c.1660264.0468917.3374931.0717712.51.074.5304648.0012562 1.0394763-.209332 1.414-.585l.923-.921c.7814904 1.1505146 1.1995379 2.509169 1.2 3.9z" fill-rule="nonzero"/></g></g></g></svg>